# xmcd
#
# Track frame offsets: 
#        150
#        17408
#        33283
#        48753
#        68182
#        82357
#        98276
#        117486
#        137808
#        151376
#        168054
#        180583
#
# Disc length: 2581 seconds
#
# Revision: 1
# Processed by: cddbd v1.5.2PL0 Copyright (c) Steve Scherf et al.
# Submitted via: ExactAudioCopyFreeDBPlugin 1.0
#
DISCID=8d0a130c
DTITLE=Brandi Carlile - The Firewatcher's Daughter
DYEAR=2015
DGENRE=Country
TTITLE0=Wherever Is Your Heart
TTITLE1=The Eye
TTITLE2=The Things I Regret
TTITLE3=Mainstream Kid
TTITLE4=Beginning To Feel The Years
TTITLE5=Wilder (We're Chained)
TTITLE6=Blood Muscle Skin and Bone
TTITLE7=I Belong To You
TTITLE8=Alibi
TTITLE9=The Stranger At My Door
TTITLE10=Heroes And Songs
TTITLE11=Murder In The City
EXTD=
EXTT0=
EXTT1=
EXTT2=
EXTT3=
EXTT4=
EXTT5=
EXTT6=
EXTT7=
EXTT8=
EXTT9=
EXTT10=
EXTT11=
PLAYORDER=
